<mxfile host="65bd71144e">
    <diagram id="WI9T0HZ2pTsCkuznbFz-" name="Page-1">
        <mxGraphModel dx="1428" dy="535" grid="1" gridSize="10" guides="1" tooltips="1" connect="1" arrows="1" fold="1" page="1" pageScale="1" pageWidth="1169" pageHeight="827" background="none" math="0" shadow="1">
            <root>
                <mxCell id="0"/>
                <mxCell id="1" parent="0"/>
                <mxCell id="hoTTxj6OLOjIW41H5pmq-1" value="&lt;b style=&quot;font-size: 14px&quot;&gt;Azure Container &lt;br&gt;Registry (ACR)&lt;/b&gt;" style="aspect=fixed;html=1;points=[];align=center;image;fontSize=12;image=img/lib/mscae/Container_Registries.svg;" parent="1" vertex="1">
                    <mxGeometry x="122" y="457" width="54.65" height="47" as="geometry"/>
                </mxCell>
                <mxCell id="hoTTxj6OLOjIW41H5pmq-45" style="edgeStyle=orthogonalEdgeStyle;rounded=0;orthogonalLoop=1;jettySize=auto;html=1;dashed=1;strokeWidth=2;fontSize=14;" parent="1" edge="1">
                    <mxGeometry relative="1" as="geometry">
                        <mxPoint x="72" y="336" as="sourcePoint"/>
                        <mxPoint x="114" y="487" as="targetPoint"/>
                        <Array as="points">
                            <mxPoint x="72" y="487"/>
                        </Array>
                    </mxGeometry>
                </mxCell>
                <mxCell id="hoTTxj6OLOjIW41H5pmq-4" value="&lt;font style=&quot;font-size: 14px&quot;&gt;&lt;b&gt;Azure Pipeline &lt;br&gt;(CI/CD)&lt;/b&gt;&lt;/font&gt;" style="aspect=fixed;html=1;points=[];align=center;image;fontSize=12;image=img/lib/mscae/Azure_Pipelines.svg;" parent="1" vertex="1">
                    <mxGeometry x="55" y="246" width="50" height="50" as="geometry"/>
                </mxCell>
                <mxCell id="hoTTxj6OLOjIW41H5pmq-47" style="edgeStyle=orthogonalEdgeStyle;rounded=0;orthogonalLoop=1;jettySize=auto;html=1;exitX=0;exitY=0.75;exitDx=0;exitDy=0;dashed=1;strokeWidth=2;fontSize=12;" parent="1" source="hoTTxj6OLOjIW41H5pmq-5" edge="1">
                    <mxGeometry relative="1" as="geometry">
                        <mxPoint x="182" y="485" as="targetPoint"/>
                    </mxGeometry>
                </mxCell>
                <mxCell id="hoTTxj6OLOjIW41H5pmq-50" style="edgeStyle=orthogonalEdgeStyle;rounded=0;orthogonalLoop=1;jettySize=auto;html=1;exitX=0.023;exitY=1.008;exitDx=0;exitDy=0;dashed=1;strokeWidth=2;fontSize=12;exitPerimeter=0;" parent="1" source="hoTTxj6OLOjIW41H5pmq-5" edge="1">
                    <mxGeometry relative="1" as="geometry">
                        <mxPoint x="411" y="618" as="targetPoint"/>
                    </mxGeometry>
                </mxCell>
                <mxCell id="hoTTxj6OLOjIW41H5pmq-60" style="edgeStyle=orthogonalEdgeStyle;rounded=0;orthogonalLoop=1;jettySize=auto;html=1;dashed=1;strokeWidth=2;fontSize=12;entryX=0;entryY=0.5;entryDx=0;entryDy=0;exitX=1;exitY=0.5;exitDx=0;exitDy=0;" parent="1" source="hoTTxj6OLOjIW41H5pmq-5" target="hoTTxj6OLOjIW41H5pmq-56" edge="1">
                    <mxGeometry relative="1" as="geometry">
                        <mxPoint x="1001" y="395" as="targetPoint"/>
                        <mxPoint x="933" y="393" as="sourcePoint"/>
                    </mxGeometry>
                </mxCell>
                <mxCell id="hoTTxj6OLOjIW41H5pmq-5" value="" style="rounded=0;whiteSpace=wrap;html=1;" parent="1" vertex="1">
                    <mxGeometry x="286" y="207" width="657" height="372" as="geometry"/>
                </mxCell>
                <mxCell id="hoTTxj6OLOjIW41H5pmq-6" value="" style="rounded=0;whiteSpace=wrap;html=1;" parent="1" vertex="1">
                    <mxGeometry x="305.5" y="288" width="211.5" height="131" as="geometry"/>
                </mxCell>
                <mxCell id="hoTTxj6OLOjIW41H5pmq-7" value="" style="rounded=0;whiteSpace=wrap;html=1;" parent="1" vertex="1">
                    <mxGeometry x="537.5" y="288" width="386" height="229" as="geometry"/>
                </mxCell>
                <mxCell id="hoTTxj6OLOjIW41H5pmq-18" value="" style="ellipse;whiteSpace=wrap;html=1;aspect=fixed;fontStyle=1;fontSize=16;strokeWidth=2;" parent="1" vertex="1">
                    <mxGeometry x="313.5" y="332" width="73" height="73" as="geometry"/>
                </mxCell>
                <mxCell id="hoTTxj6OLOjIW41H5pmq-21" value="Admin site" style="text;html=1;strokeColor=none;fillColor=none;align=center;verticalAlign=middle;whiteSpace=wrap;rounded=0;fontSize=14;fontStyle=1" parent="1" vertex="1">
                    <mxGeometry x="392.5" y="357" width="94" height="24" as="geometry"/>
                </mxCell>
                <mxCell id="hoTTxj6OLOjIW41H5pmq-22" value="Frontend" style="text;html=1;strokeColor=none;fillColor=none;align=center;verticalAlign=middle;whiteSpace=wrap;rounded=0;fontSize=16;fontStyle=1" parent="1" vertex="1">
                    <mxGeometry x="329.5" y="294" width="161" height="25" as="geometry"/>
                </mxCell>
                <mxCell id="hoTTxj6OLOjIW41H5pmq-23" value="Backend" style="text;html=1;strokeColor=none;fillColor=none;align=center;verticalAlign=middle;whiteSpace=wrap;rounded=0;fontSize=16;fontStyle=1" parent="1" vertex="1">
                    <mxGeometry x="650" y="294" width="161" height="25" as="geometry"/>
                </mxCell>
                <mxCell id="hoTTxj6OLOjIW41H5pmq-24" value="" style="ellipse;whiteSpace=wrap;html=1;aspect=fixed;fontStyle=1;fontSize=16;strokeWidth=2;" parent="1" vertex="1">
                    <mxGeometry x="550.5" y="332.5" width="73" height="73" as="geometry"/>
                </mxCell>
                <mxCell id="hoTTxj6OLOjIW41H5pmq-26" value="User authentication" style="text;html=1;strokeColor=none;fillColor=none;align=center;verticalAlign=middle;whiteSpace=wrap;rounded=0;fontSize=14;fontStyle=1" parent="1" vertex="1">
                    <mxGeometry x="629.5" y="356.5" width="94" height="24" as="geometry"/>
                </mxCell>
                <mxCell id="hoTTxj6OLOjIW41H5pmq-27" value="" style="ellipse;whiteSpace=wrap;html=1;aspect=fixed;fontStyle=1;fontSize=16;strokeWidth=2;" parent="1" vertex="1">
                    <mxGeometry x="550.5" y="430" width="73" height="73" as="geometry"/>
                </mxCell>
                <mxCell id="hoTTxj6OLOjIW41H5pmq-28" value="" style="html=1;whiteSpace=wrap;shape=isoCube2;backgroundOutline=1;isoAngle=15;strokeWidth=2;strokeColor=#FFFFFF;fillColor=#2E8BE8;" parent="1" vertex="1">
                    <mxGeometry x="566" y="442" width="43" height="50" as="geometry"/>
                </mxCell>
                <mxCell id="hoTTxj6OLOjIW41H5pmq-29" value="User profile" style="text;html=1;strokeColor=none;fillColor=none;align=center;verticalAlign=middle;whiteSpace=wrap;rounded=0;fontSize=14;fontStyle=1" parent="1" vertex="1">
                    <mxGeometry x="628.5" y="454.5" width="94" height="24" as="geometry"/>
                </mxCell>
                <mxCell id="hoTTxj6OLOjIW41H5pmq-30" value="" style="ellipse;whiteSpace=wrap;html=1;aspect=fixed;fontStyle=1;fontSize=16;strokeWidth=2;" parent="1" vertex="1">
                    <mxGeometry x="748.5" y="333" width="73" height="73" as="geometry"/>
                </mxCell>
                <mxCell id="hoTTxj6OLOjIW41H5pmq-32" value="Course" style="text;html=1;strokeColor=none;fillColor=none;align=center;verticalAlign=middle;whiteSpace=wrap;rounded=0;fontSize=14;fontStyle=1" parent="1" vertex="1">
                    <mxGeometry x="821.5" y="356.5" width="71.5" height="24" as="geometry"/>
                </mxCell>
                <mxCell id="hoTTxj6OLOjIW41H5pmq-44" style="edgeStyle=orthogonalEdgeStyle;rounded=0;orthogonalLoop=1;jettySize=auto;html=1;fontSize=14;dashed=1;strokeWidth=2;fontStyle=1;exitX=1.056;exitY=0.484;exitDx=0;exitDy=0;exitPerimeter=0;" parent="1" source="hoTTxj6OLOjIW41H5pmq-33" edge="1">
                    <mxGeometry relative="1" as="geometry">
                        <mxPoint x="117.75" y="657" as="sourcePoint"/>
                        <mxPoint x="372" y="657" as="targetPoint"/>
                    </mxGeometry>
                </mxCell>
                <mxCell id="hoTTxj6OLOjIW41H5pmq-33" value="" style="aspect=fixed;html=1;points=[];align=center;image;fontSize=12;image=img/lib/azure2/identity/Users.svg;strokeWidth=2;" parent="1" vertex="1">
                    <mxGeometry x="81.24" y="625" width="58.51" height="64" as="geometry"/>
                </mxCell>
                <mxCell id="hoTTxj6OLOjIW41H5pmq-34" value="" style="aspect=fixed;html=1;points=[];align=center;image;fontSize=12;image=img/lib/azure2/containers/Kubernetes_Services.svg;strokeWidth=2;" parent="1" vertex="1">
                    <mxGeometry x="435" y="220.31" width="64.25" height="56.69" as="geometry"/>
                </mxCell>
                <mxCell id="hoTTxj6OLOjIW41H5pmq-35" value="Azure Kubernetes Service (AKS)" style="text;html=1;strokeColor=none;fillColor=none;align=center;verticalAlign=middle;whiteSpace=wrap;rounded=0;fontSize=20;fontStyle=1" parent="1" vertex="1">
                    <mxGeometry x="513.75" y="228" width="317.25" height="38" as="geometry"/>
                </mxCell>
                <mxCell id="hoTTxj6OLOjIW41H5pmq-36" value="DevOps" style="text;html=1;align=center;verticalAlign=middle;resizable=0;points=[];autosize=1;fontSize=14;fontStyle=1" parent="1" vertex="1">
                    <mxGeometry x="79" y="698" width="63" height="21" as="geometry"/>
                </mxCell>
                <mxCell id="hoTTxj6OLOjIW41H5pmq-37" value="" style="aspect=fixed;html=1;points=[];align=center;image;fontSize=12;image=img/lib/azure2/networking/Virtual_Networks.svg;strokeWidth=2;" parent="1" vertex="1">
                    <mxGeometry x="475" y="530" width="67" height="40" as="geometry"/>
                </mxCell>
                <mxCell id="hoTTxj6OLOjIW41H5pmq-38" value="Azure Virtual Network" style="text;html=1;strokeColor=none;fillColor=none;align=center;verticalAlign=middle;whiteSpace=wrap;rounded=0;fontSize=14;fontStyle=1" parent="1" vertex="1">
                    <mxGeometry x="292" y="533.5" width="167" height="33" as="geometry"/>
                </mxCell>
                <mxCell id="hoTTxj6OLOjIW41H5pmq-41" value="" style="html=1;whiteSpace=wrap;shape=isoCube2;backgroundOutline=1;isoAngle=15;strokeWidth=2;strokeColor=#FFFFFF;fillColor=#2E8BE8;" parent="1" vertex="1">
                    <mxGeometry x="566" y="345" width="43" height="50" as="geometry"/>
                </mxCell>
                <mxCell id="hoTTxj6OLOjIW41H5pmq-42" value="" style="html=1;whiteSpace=wrap;shape=isoCube2;backgroundOutline=1;isoAngle=15;strokeWidth=2;strokeColor=#FFFFFF;fillColor=#2E8BE8;" parent="1" vertex="1">
                    <mxGeometry x="763.5" y="345" width="43" height="50" as="geometry"/>
                </mxCell>
                <mxCell id="hoTTxj6OLOjIW41H5pmq-43" value="" style="html=1;whiteSpace=wrap;shape=isoCube2;backgroundOutline=1;isoAngle=15;strokeWidth=2;strokeColor=#FFFFFF;fillColor=#2E8BE8;" parent="1" vertex="1">
                    <mxGeometry x="328.5" y="344" width="43" height="50" as="geometry"/>
                </mxCell>
                <mxCell id="hoTTxj6OLOjIW41H5pmq-46" value="docker&lt;br style=&quot;font-size: 12px;&quot;&gt;push" style="text;html=1;align=center;verticalAlign=middle;resizable=0;points=[];autosize=1;fontSize=12;fontStyle=1" parent="1" vertex="1">
                    <mxGeometry x="23" y="384" width="49" height="32" as="geometry"/>
                </mxCell>
                <mxCell id="hoTTxj6OLOjIW41H5pmq-48" value="docker&lt;br style=&quot;font-size: 12px&quot;&gt;pull" style="text;html=1;align=center;verticalAlign=middle;resizable=0;points=[];autosize=1;fontSize=12;fontStyle=1" parent="1" vertex="1">
                    <mxGeometry x="230" y="488" width="49" height="32" as="geometry"/>
                </mxCell>
                <mxCell id="hoTTxj6OLOjIW41H5pmq-51" value="RBAC" style="text;html=1;align=center;verticalAlign=middle;resizable=0;points=[];autosize=1;fontSize=12;fontStyle=1" parent="1" vertex="1">
                    <mxGeometry x="326.5" y="580" width="45" height="18" as="geometry"/>
                </mxCell>
                <mxCell id="hoTTxj6OLOjIW41H5pmq-56" value="" style="shape=datastore;whiteSpace=wrap;html=1;strokeColor=#FFFFFF;strokeWidth=2;fontSize=12;fillColor=#86BA6A;" parent="1" vertex="1">
                    <mxGeometry x="1019" y="347" width="101" height="92" as="geometry"/>
                </mxCell>
                <mxCell id="hoTTxj6OLOjIW41H5pmq-59" value="" style="shape=image;aspect=fixed;image=data:image/png,iVBORw0KGgoAAAANSUhEUgAAAgcAAABhCAMAAAB1TfJnAAABBVBMVEX///8hMTwQqlASkk8YKjYdLjn19vcbLDgNJDHv8PFia3ESJjMWKTUAECNOWWIAGCgIIS/l5+gAGyqorrOkp6rS1NWBhosRmU+LkpgAFic1QksuPkpETlbo6uuSmZ7a29zFx8k+SlRbZW50fYS4xMIAjke2ur0QqFAQnk8Ap0dxeX/BxMamq64ACh/Nz9EAABrq9+86omiu2L8ApD/K6tZTXWQAij/W7+AAABRbuYGg2rUAmjy528fn9u1AuG4msV9tt4uOyaV+y5lOu3eP0aZ6wph3ypYvm15LpXC45cqz2MGGwp6U0K4AAAmfzLBEompftYM2rGqOvaZQoHNkp4F2sZKlvrNN8PtNAAAWaElEQVR4nO1d+4PaOH5HGcsvGWMbwxrbYAwzTgMMyfZCsnttkr3t9bLb9trrtd3//0+pHjaWZNkwjw2ZjD+/DPiFLH30fUszGKjw5r3ycI9nhvc/6pduQo+vAH/8p3++dBN6XB4fPr78fOk29Lg43nx89fLdv126FT0ujPcfX714efX9h0u3o8dF8f7TqxeYBzc/XbohPS6JXzELCA+ubv506ab0uBzevnxR8uDq5j8u3Zgel8JbKg0YD3oiPFt8+PSC48HVzT9eukE9LoJPrwQe9ER4nvi5osGLl98xIlz1iYbnhz8faXDkwc1VH0Z4bnhb06CWBzf/delm9fiyePNRxYOrd/9+6Yb1+KL4maMBx4Ormz71+JzwnqfBixc1D66+u3TTenxB/NjKgz7T8Izwq0gDngdXN28v3boeXwofO3jQa4ZnA1kciDx414cVnwk+vujiwdX3by7dwB5fAm//0M2DXiA8D/yLrBYkHlxdXbqFPb4AyuKTDh7c9GWrzwB/boiDBg9+unQbe/z++NSgQUMvvOsT0N88mlZikwc3/3rpVvb4vfGXplpo8OCqX+D0reNN01tQ8KC3FL91vG2yQMWDb78OQSfgPh7ResOXatkXwR8V4qDJg6vP33pMcW0TTClsAdPF2FfcMDlMVVjsJo/VpBA/7iyy6YvpNHwgLX88jwffusewfO04muYgCvxJw1/JHwxkekNzvbXEG/SVh1QwvdnIXj5GkybQRK9bnmTpfHOs1AtWD+SBwmtU8eBb9xgiDTqmAUoYJiYDGVRHYwcgMg874YYsxqe16gZ8HsMpH4AcO3uEJpkAOBvlKSs9uAX31TU0+2E8eKPwGpU8+OVBP/P1Q8+K0EUlDdLFuCjG43G4WTmBA+lBLci3/A3+drywNXYOxtECY+OaHjuAtKLth84Gwo+CiZJQ1mttNOa+PpwHjZRzCw+uPn/jioFAX5h0FM3jIOq6X9hJSQ/NWUidrRfsTMAYoltZmDiMSs7ygY0pAoCJYIaqc9YQeI/LA0VQWc2DZ+E56i6V7OZcOJpNEVMAMFjLvX1gN9Szdj4dMdKkkkFx16bYmpEmEOaqk4/Pg5/P5sG37zliTOnUN2X/IHPZLAee3N0bcgIC/gb2DOCJ9sRdMTGgucPyKVgqTj4+D5TugpIH3z/od54IWngw0KNRSYSpeIIYcxIP5imVEZr7oJasEYS+HwCkshQfnQdv5MrEVh5cffdtxU3UYAZCkwfVGXxOnOYKHgxCj155+5CG6AHQ7MHAdpSW4qPz4EOjJK2VB++eAw/YEKp4MJgGzEYAgvGg4oHPZMdM9ZRzMfbADBufY1NpKT46D94rwwdqHnzrEUWCDh7oNrMRkM0fVfFgkFDncfaAGIK1wlYiNjStGMJEcfrReaCkgZoHz8Bx7OLBIJuVAoEPHCt5kFMD4fYBIzNBAEXkA7ZDZ/vG6Yvy4DmsdOziwSBieh+t+WOtPIDgAe3Assej4mQSqGKKj86Dt0ozUc2D51C13MmDjMl7iLguV/FAp9eZ0f2bYcEqcKC7BowbCkZ/BB5YfJvvwIP2fbOOhtM8m0hN9vGRkw20zoy4nHtdJ/TOp3TyAPtyLHrIxYxVPKAKpCUifB5C8xh+CBHwOEvR3y4xCg+g6ZKC9G6DB5OdHcPbWy+2Q0X2U98vDuh2OLyFq7Bs5IN5oFtjmxlOemHnSRIfdscGsSOJO23vEatYHw5p6m7GvpIueha57MQkwtcd1k1deXxSZK9W62jJPUeOAmcL++Cm6SpatnGhmwcFcxkQF0NQ8SAidAmUAeHzYB00GJePzIBgKYYeJKByCUOjvyzxINsknkOvgY4HVnLv7w/AK+Ojmpes6Sx+r+bBP5zHg2y7WHmBecAf9TAeOQZpWZCyN9B3eUCPGKan7hPME3PkIXyR4Xgzt5GZmRTTfGb+QMasWM1MDT8cjQ5KWx4/aRiYSHPMwJgWbJT96Zi/JlvkwwA55Cn4VyP1UHfzAItjGiE61H2u4MEEqwXorZu3n419wHHN1UBQsz8MDALyo+SvigdbE0EDeQEGHm/oGGLHLjwNnw5mw+GIsMXLicRosRNVPJDtg8UqTTSSeSXxjm2KNMNguTYnJwzc5nUaF5oLxdtuUxOZcZomDsmsAU3jh3gbYVmC8AmY6JjgyKmehfKGSNDHOQqS1WqV0hQdcuLVZrFZJbz8nk+BaYI0jQFtFkRAGfbt5sEgpm9o5PX5Jg8m2ErUDNULnw2bdxKoDjieGucpgQFgTD+4ZDoLPCjwMDj5ekeURmgDAxjGknv2OIBAc6PCt6wJPq0BLbHuxoNfhbZO/jpC5biv9eg2GAL3oAVU3qB0oE9NB3mjUWCya4aNya5HM0NDYWbNJ9spNNkQH0VY8drTGK0wD7YAYalSsgz3sZgFGsw3gTGKyK3zInaYvHNMR+Pffx970LP3cyvb71KPMkGOEFOc4AELIcCkVroRCzNWo+YvI9y1yF0qbz8TRBUY9evlBkyODcLmDYY/AmbIPpKDPA8yzQCj8NhF+8QBDlej4ufk9PH73kXAXLfGkZQ8kPZO88ODxmZ8Eo9SJmeXK9pR2io1zXg9nkz2i5R1XSx1reWaeF5V425N6VWGVl3lb2KzSu2vTc3DJDtUR0xR5PoAv2l4fOyxNAR4h+M1O6xI0VE5FTFtd6Aw6E/woAwuw1oklTwACQV+dTw5NPu0bdwF/CseJ08i0VIkaPcb9Y0DNF4f+ikEs5q3RLrwsgrfCkHWFldW8qDxbvo2p70Og6iyu/QDNakNJ1iUYzxn8Vgp+6avTEB+v353OgDO4WjA+buk7HQs88PJXNezMaBHhPsGuo2A4R7bVvp2wLt9XdcEFVgW8m5cllAiIMF+oDjBgzJzABo8gBWYyNJW4/szQU+h8Ip7D8jZ53YeZCaQXMixBzi1vHGkKVmMhmirWuN6Pg/wYFGF6XG+icViKCn3W3Suw1i4cYM7NBCGgQVpBGG9ZqIEHN9C37B0ID+RQ0wzvk/owGCFyrWWGG7agbtnMAHUmh5JGuYkD5alw7AUfw63gAqYUYBKm0jz0L2ZsB1JoSMsvpBQCtXBA9weT6L3DDh1KDyBhpgHtXaUcqpVLGoeqPKNFqnbEAPgC0RNBu4II8tM8G9HhBmC81YSyOQOsrnNy8Q5vcjgOUVGNODGzSc2vTglVkgmXZVXbFhzJ3iwDdR6wdtlGBPs4LhBaR5D0255yCmsNCFCQWUlEo2Zdh5gfT+SQgYJ1FbcF0OZD1fXIyl4cPOj4m4FDzLSMeLso0l9vp5Cx69axs9rbDV5aPyc8GDID2lBRYRTH9rPSAM48uiEKobLzfQtuQRIEQP6aBjLAuE8edDQCyOuHmnslsrDTBvi5hxgWSWFpP0EShGKVh7om9j5q/RAfHd6/JLDhqlG8auyTlXFg/9U3K3gwYAMuiHoMxp+4Sm+NBXaWafWGz+TKQ8g4HngUxGBasbvPJkHhGMGp5eI5STrzMoeCURxe6Z9wAd6GQ+E1KK1KA1aZ9V8wmlgUSXNfpJsEi3FDjtx7svvJPAAz0lHGc05mweq+kQVD7B9KvFgMpPEO1XzhhwHYK44rMeA+Dg0fsCB6hhOPxMBL052YlXwHn5GNIfcswOfebhyCucED9ioQ26iK3iAJVBprAYNb/k0dCIOpK7BE8lI+QN3yDPpmcCDvQPBKFIIKqXDoLIPVNvnKXlgyDywhpLAZ90kxzsntHyDi50xeSDy4EDGj7OaqKKf8e9Fpz/nMVNp1CjmoGIDwFQ6fIIHG6aWOM3PUg5yqUHpV2j3WFyCm6s15Aj27eCS+34mD/Qs3KQkusm9JnHfUB7tLel6pYGg4IF6x23SmxIPbO0UD+YQNnO1+DAzC2sHU8UDOnxm3QeUB/y8Y7YHZ6fSaH8zss2kj1zjcYIH1KoQLBtbU/GA0RUz5u65Jtx8tNDnAiws4wSJdgYP9OVuA4aeQ2LQAt03gQYMc2S603DLzR/lOtcmD27+pmy13eQBk8v8EZkHGbOo5T7SaZ9ynazSC4wHNVfobOfdLJr05b0DOoebxV1jQg+pyOzM/MKIE9uMByP5XcZlZrIZoTiBPSCh9FhCIjX1FA+sws6hh1WAgRC+WRR7xcEhBoyBPBjbx1c5b917WxXKvXiw1yTnq7qTdB43ldvlQc0D6zUQc7zUgTC5e+hINYsBtqzgXCnQ23jA3AXBmm+RB2U46+41CFNmJEmgnOIicd082EcgcCDJNd3m621ma5L607dRPgpMzYDQ8TbVu6oUQ5MH36mrE+/Fgwmr65bt2mMIqMI5PGAS2Kl7gUx/xM9+mhNo2ImDCbUPZOXUzQNW1S48q4UHeqlBVDmMLuj4941AAeIL15d18SCzEZ7uhgfd9dhiTWyYQfiW7cLOTdJXcTkfP5yxL07rMtcH6IVmVDc0xevO0QskYE4mS3XXlhgDQgSH6oWmGeWz2jEprNDJg3lKgw5CfWILDwZsDYMyz9qFMfEM9ssmiA1dC9AOHmwThEkwTMNJ9WpKHhD4W3tmAC0u71QsZTl7P5TDfXhgAXXdFuUB59Ir4gdNHgwilr9I976uZ7sRhGJBcZUZlitPfNIGI5aOdvIgpL9kCnO8lQfwPo6jjvtTXayBXW1OY7bzYDuCwMwX/Au08mDAFmpVsXzFUtdz90dS+Y2necD8xuYUpbY/t1SQxRNnJ3ig23SNsYZy2048iAJpMSorImpYchmLWklHO3lAmw014WSLnVjqhePL6MViETUUYQMT2PbjWxNA58jlVh6Q6HwwFZ+QwnYeEEMGVsGWZgihsV9aS22iigfu6fgBS+N7cucR9Wu49cSlekGMKyt4gIVp4rEiLMfxnHVjwB2lpqZ2YsOe7+LBlBVJiFO8007UqvRpRrOvk+iUG4k7BqkLmUhP15KilQe7ZjByALt4MNgh4JUKpxlblnnwXcv/bTsvntjgwY7lFiXlyTx/7i0U+QUlDwbzMMHWsQESd9Hs6Tldw2ykkvTB74/tcvnykgfL5qsOttRsN6UIZAsPCmpRVrGQeTjY2evdQI+6K211LLqcFlWC1VtdD9fKgw2CuURif9gMl3FYwjpkI7uOL+X9VNvWOt+TBz5L+4oJx8GcHOUlLMsOn8EDrOaQO95O1NE7Fvp1pKlPhE9z7oUsD6mQ4BktumkkEVt4QCWeUVlg4XwwHfvT7cDvLl7FLISx+iUGWcC52m080A9GIxiJX7/mwSSUI+l7Lrgix5JeyuZB25K2e/KgcsBEgUAUuRDwn5CLzuCBPo5R2hYCxD1I49Vymps002xID2XDCJY0C4YagWLGA0+axDQ/DUFFJ/w4TIItbrW8kYYAC1uJ7Z7mijvZygPyQbxtwseVI+BxuRmKgs9ySy6DxIN3f2prG/WkJB7EDR7Q8IvAg4wG5qC4ZwjuBTEn2s4DYW5vVyPYMPh4bFiNgNDDhHRBo8/1TVlF18hHk62P4CxqDGO5xl38eSrI4G3VvT5u7nQTbjDrxl2KgaRhG0bTEWN8toqPER7wYaUjD7BvIOoFK9Y4HuCGiSUBNHhnHH/zQ6c8aP8/HMwcCoTeoW6aIN2oxS6WGzBZbcTL+lDoACjmgffOOTyITOq7dhjjzN7ELeBS2pitZjM1My8ThVrOL4OwCpfskWTmTdVtxeUNfIajAPj3tOR4yCI8GE/J904erBw+INZ4i7jW5JYn9GdtH5CkNT/hJqkDXFjzOvIkvxcbMrzjJu6iKPKgY2FjyMTomssVlxWn03pGlak9YZcp7OzRy+BRYYYmNCTXmdUIiOU11HQU8gkHNoW9zSIcF8u9aj3Mcsi8+U1FfNI9XtwYk8wud0ICBlotiozkeCbFIg0MwEdga/jrsg7NSMLyrF+saDgv5pqNh2zt6zZZ5dGhF+aewvLhQCpQS72kJ5UEXIh163tszNZKyloYWrBYc5WrVoK1i12PzRhLrlue3oKpKPCgJcM0mGeLQ7mqAAsjmrDYH3D72CEHJivSE1axAayvDCdfF3XX2yyVj8CClHQVKYIo5ieVPylL/4y8yNjgzrOtzZ6lxdFxBV1Y1gg5pomQRjYwSzeLiTjG24Q2y0GbJakfW0MNemtJ9o/dRKuLnYFmYhkASabGxCzwko28QMxfrxLjuKwCIghS13UT6GD1ZuYCo4v9AFNwuhzsl+q+pFiYinAXh31wLNog+zhpke/vck1axzLFpqZ52GMKZ/s1QHh66GOPzJwdk3BZrAEHrJf4Aj8bkwUfokXy/mUbDz63+IyHIDDLfSeRg4bkxcNb5Bz3kzRfk2EtfqDrkDCg4Zg/1AJdj17TDemgF+COCxx0u+bn2yIZHedmYNJSVWtlBlW/G2YwK7tMr+rAqhEh2RNPWkGwTwIqEpyA6GDTCRJZxmdJuRxDfJhhaMi7TRT+6HSkQflagyzNMkdgIYoOfTHP9IHlZ11hZmJzO11mjo5tkWrQpkR2ALI+TeKBRXpDC4CbGgGCRoBdTT/HAsrxRqxHJsCDEHmYtInpGcCYbUQRxa90/O9ztEI+dKt9aKe2TSd/sbLtdbXB7Nomh7YJWXVDtqfFfxLBQJ/YhqexEJ3n5VIQ7ODhTnUoNMOgFl2WONUxfMi4PdbKrz2jMYDaUApbh3mAyFIY3AkBsJv5YGLMBiMJMwBcOxqr6gz9ZMiuCTwKhMnnBQFM7UixBjMcT/b7sNNrLF47aNS6fJM+JEDoBzZqfkzDH1icMr2A0FHJT6kgI8t+sHKi72nZEN+JymfrETCJpCOdYQR5oye4vOP3n0+HDgYZWVNQfq52oxZ2pWaFkz7GnGxXjf9k4voOPQsPCW6gkUd7WfcucrL6dU1wSFNqoemESi49tMKfOBdu6RrQIRuakuWLFRNkX85frmOIfy2xC9UyE50WHMvIsnlbvVd1yX4cYuywQ7ALi0mmXq878PGV3fvkhPhtu+NMGX7zTTma2QFrQaTR6TewNnle7+g3saFJhXRa7QutZ+Ppug60ZlFiMpmd7hRtOpawv/rp8ynj4BGhd8fYzsHENcGGbGg63awSrywcN5QbGN6rhPirxHzfmDxHZNvlsiWqxuCTnGbbqqtq77RXf/+figatEaSvCSHwDlklkPwsitlOuMqdB3ucRrWJ3qvf/vem20b8mjC3vZFsC9A1sXdO/vco8eETI8L2/26YNHgCW2NhneA0KhloccpDNqZ55mDFih+vr98RGjwFaZBBR85XEZC8R8+D+4MQ4dXfrre/3Fzd/PIEbAM/dZT/o4Dkjx+4wfHzhv6XP7z6+/X1b1fvnsQ/3iDjrZr3JBrgPWQ/0x5//PTbNSbC09glj6T7VBU8mB8P3YH82eP9NcGlW3EeaCWrotqG7EN5j8WFPTjohAadAc6vB7ReADUMAbJf/X23H+hRgvLgEf7P1JcALfwRyhgIrJWmNTch7XE36HvMgycSf2X7Yhnikn4/RVpj9WSPO2OCefBUbKz9jGYs0Wpcpbj8aayZzU0We9wZT4kHg4XBKgS9UWpPo+khGSLH2zwRcfZ1I7u+frT/Tfv7Y1sVkECNZGINR1VH2OMe8J8UDwZ+BAKyqy8pUkGBZxcPT2T3IJhfXz+tUJxeTG0X47CJ5H/D3OP+0J+Mu8CB7DX8ZIyaJ4Lr635W9SA86GfWs8L/AwO22fZurXJWAAAAAElFTkSuQmCC;" parent="1" vertex="1">
                    <mxGeometry x="986" y="446" width="155" height="28.96" as="geometry"/>
                </mxCell>
                <mxCell id="hoTTxj6OLOjIW41H5pmq-62" style="edgeStyle=orthogonalEdgeStyle;rounded=0;orthogonalLoop=1;jettySize=auto;html=1;entryX=0.093;entryY=0.005;entryDx=0;entryDy=0;dashed=1;strokeWidth=2;fontSize=12;entryPerimeter=0;" parent="1" source="hoTTxj6OLOjIW41H5pmq-61" target="hoTTxj6OLOjIW41H5pmq-5" edge="1">
                    <mxGeometry relative="1" as="geometry"/>
                </mxCell>
                <mxCell id="hoTTxj6OLOjIW41H5pmq-61" value="&lt;b&gt;&lt;font style=&quot;font-size: 14px&quot;&gt;Client&lt;/font&gt;&lt;/b&gt;" style="aspect=fixed;pointerEvents=1;shadow=0;dashed=0;html=1;strokeColor=none;labelPosition=center;verticalLabelPosition=bottom;verticalAlign=top;align=center;shape=mxgraph.mscae.enterprise.client_application;fontSize=12;fillColor=#2E8BE8;" parent="1" vertex="1">
                    <mxGeometry x="55" y="94" width="71.88" height="46" as="geometry"/>
                </mxCell>
                <mxCell id="V8MuozQqvg7r-mSm-wHJ-1" value="&lt;b&gt;&lt;font style=&quot;font-size: 14px&quot;&gt;Azure Active Directory&lt;/font&gt;&lt;/b&gt;" style="aspect=fixed;html=1;points=[];align=center;image;fontSize=12;image=img/lib/azure2/identity/Azure_Active_Directory.svg;" parent="1" vertex="1">
                    <mxGeometry x="376.25" y="622" width="70" height="64" as="geometry"/>
                </mxCell>
            </root>
        </mxGraphModel>
    </diagram>
</mxfile>